<?xml version="1.0" standalone="no"?>
<svg xmlns="http://www.w3.org/2000/svg" width="516.5836682416611" height="236.98366824166112" viewBox="0 0 516.5836682416611 236.98366824166112"><g fill="#00936f" color="#00936f" transform="translate(0 0) scale(3.7028699)"><svg width="64.0" height="64.0" x="0.0" y="0.0" viewBox="0 0 64 64"><title></title><path d="M50,45a3,3,0,1,0,3,3A3.0033,3.0033,0,0,0,50,45Zm0,4a1,1,0,1,1,1-1A1,1,0,0,1,50,49ZM16,37a7,7,0,1,0,7,7A7.0082,7.0082,0,0,0,16,37Zm0,12a5,5,0,1,1,5-5A5.0059,5.0059,0,0,1,16,49Zm0-8a3,3,0,1,0,3,3A3.0033,3.0033,0,0,0,16,41Zm0,4a1,1,0,1,1,1-1A1,1,0,0,1,16,45ZM58,27H42V25h1a1,1,0,0,0,1-1V15a1,1,0,0,0-1-1H42V10a1.001,1.001,0,0,1,1-1h1a1,1,0,0,0,0-2H43a3.0033,3.0033,0,0,0-3,3v4H39a1,1,0,0,0-1,1v9a1,1,0,0,0,1,1h1v2H33.85l-0.32-2-0.31-2L31.25,10.53A2.9823,2.9823,0,0,0,28.29,8H7.75a3.0058,3.0058,0,0,0-2.97,2.6L3.13,23l-0.12.87A0.5694,0.5694,0,0,0,3,24V37a3,3,0,0,0,2.7725,2.9769A10.9988,10.9988,0,0,0,5.0488,43H4a1,1,0,0,0,0,2H5.0507a10.9529,10.9529,0,0,0,2.9777,6.5576L7.293,52.293A1,1,0,1,0,8.707,53.707L9.5344,52.88A10.9231,10.9231,0,0,0,15,54.9493V56a1,1,0,0,0,2,0V54.9494a10.9077,10.9077,0,0,0,5.4692-2.0662L23.293,53.707A1,1,0,0,0,24.707,52.293l-0.7377-.7377A11.0854,11.0854,0,0,0,25.8048,48.96,0.9483,0.9483,0,0,0,26,49H43.08a6.9885,6.9885,0,0,0,1.777,3.729l-0.564.564A1,1,0,1,0,45.707,54.707l0.703-.703a6.9328,6.9328,0,0,0,2.59.9173V56a1,1,0,0,0,2,0V54.9213a6.9328,6.9328,0,0,0,2.59-.9173l0.703,0.703A1,1,0,0,0,55.707,53.293l-0.564-.564A6.9885,6.9885,0,0,0,56.92,49H58a3.0088,3.0088,0,0,0,3-3V30A3.0088,3.0088,0,0,0,58,27ZM17,19h3a1,1,0,0,1,0,2H17A1,1,0,0,1,17,19ZM5,24.07L5.14,23H23V10h2V23h6.2l0.31,2H5V24.07ZM16,53a9,9,0,1,1,9-9A9.01,9.01,0,0,1,16,53Zm34,0a5,5,0,1,1,5-5A5.0059,5.0059,0,0,1,50,53Zm9-15H34v9H32V29H5V27H31.83l0.18,1.16A1.0085,1.0085,0,0,0,33,29h1v7H47V29h2v7h1V29h2v7h1V29h2v7h4v2Z"></path></svg></g><path fill="#1c2149" fill-rule="nonzero" d="M0.48 1.04L0.48 1.04Q2.12 1.04 5.70 0.88Q9.28 0.72 12.20 0.72L12.20 0.72Q18.28 0.72 20.88 3.14Q23.48 5.56 23.48 9.88L23.48 9.88Q23.48 12.48 21.68 14.56Q19.88 16.64 16.96 17.68L16.96 17.68Q18.68 20.60 20.18 23.16Q21.68 25.72 22.36 26.96Q23.04 28.20 23.60 29.18Q24.16 30.16 24.42 30.52Q24.68 30.88 24.92 31.12L24.92 31.12L27.80 31.52Q27.96 32.12 27.80 33L27.80 33L21 33L14.96 22.04Q13.76 19.76 12.68 18.52L12.68 18.52L12.12 18.52Q10.08 18.52 8 18.28L8 18.28L8 31.24L11.64 31.64Q11.80 32.24 11.64 33.12L11.64 33.12Q9.12 33 5.96 33L5.96 33Q3.60 33 0.24 33.08L0.24 33.08Q0 32.36 0.24 31.64L0.24 31.64L3.56 31.16Q3.72 29.64 3.72 26.48L3.72 26.48L3.72 2.92L0.48 2.52Q0.32 1.92 0.48 1.04ZM8 7.68L8 7.68L8 16.64Q9.24 16.80 11.60 16.80L11.60 16.80Q13.64 16.80 15.10 16.14Q16.56 15.48 17.28 14.38Q18 13.28 18.32 12.12Q18.64 10.96 18.64 9.68L18.64 9.68Q18.64 6.24 16.92 4.32Q15.20 2.40 11.20 2.40L11.20 2.40Q9.72 2.40 8.24 2.68L8.24 2.68Q8 4.96 8 7.68ZM32.52 26.52L32.52 26.52L32.52 2.92L29.28 2.48Q29.04 1.76 29.28 1.04L29.28 1.04L34.76 1.16L50.92 1.16L50.96 10.44Q50.08 10.60 49.48 10.44L49.48 10.44L47.60 3.20L36.80 3.20L36.80 15.20L43.20 15.08L44.12 11.16Q44.72 11 45.60 11.16L45.60 11.16Q45.44 13.40 45.44 16.32L45.44 16.32Q45.44 19 45.56 21.52L45.56 21.52Q44.84 21.76 44.12 21.52L44.12 21.52L43.24 17.36L36.80 17.24L36.80 30.96L48.80 30.96L50.68 23.72Q51.28 23.56 52.16 23.72L52.16 23.72L52.12 33L34.76 33L29.04 33.12Q28.80 32.40 29.04 31.68L29.04 31.68L32.36 31.24Q32.52 29.20 32.52 26.52ZM56.44 1.04L56.44 1.04Q58.08 1.04 61.66 0.88Q65.24 0.72 68.16 0.72L68.16 0.72Q74.36 0.72 77 3.14Q79.64 5.56 79.64 9.88L79.64 9.88Q79.64 13.72 76.22 16.32Q72.80 18.92 68.08 18.92L68.08 18.92Q65.64 18.92 63.96 18.68L63.96 18.68L63.96 31.24L67.60 31.64Q67.76 32.24 67.60 33.12L67.60 33.12Q65.08 33 61.92 33L61.92 33Q59.56 33 56.20 33.08L56.20 33.08Q55.96 32.36 56.20 31.64L56.20 31.64L59.52 31.16Q59.68 29.64 59.68 26.48L59.68 26.48L59.68 2.92L56.44 2.52Q56.28 1.92 56.44 1.04ZM63.96 7.68L63.96 7.68L63.96 17.04Q65.20 17.20 67.56 17.20L67.56 17.20Q69.64 17.20 71.14 16.50Q72.64 15.80 73.40 14.62Q74.16 13.44 74.48 12.24Q74.80 11.04 74.80 9.68L74.80 9.68Q74.80 6.20 73.04 4.30Q71.28 2.40 67.16 2.40L67.16 2.40Q65.68 2.40 64.20 2.68L64.20 2.68Q63.96 4.96 63.96 7.68ZM86.44 21.28L82.88 31.24L86.12 31.64Q86.28 32.24 86.12 33.12L86.12 33.12Q83.60 33 81.88 33L81.88 33Q80.92 33 77.56 33.08L77.56 33.08Q77.32 32.36 77.56 31.64L77.56 31.64L80.20 31.16Q80.84 30.20 81.80 27.60L81.80 27.60L92.12 0L93.52 0L105.12 31.24L108.36 31.64Q108.52 32.24 108.36 33.12L108.36 33.12Q105.84 33 102.72 33L102.72 33Q100.40 33 97.04 33.08L97.04 33.08Q96.80 32.36 97.04 31.64L97.04 31.64L100.36 31.16L96.84 21.28L86.44 21.28ZM91.76 6.04L91.76 6.04L91.72 6.04Q91.24 7.92 90.16 10.96L90.16 10.96L87.16 19.28L96.12 19.28L93.20 10.96Q92.36 8.52 91.76 6.04ZM109.68 1.04L109.68 1.04Q111.32 1.04 114.90 0.88Q118.48 0.72 121.40 0.72L121.40 0.72Q127.48 0.72 130.08 3.14Q132.68 5.56 132.68 9.88L132.68 9.88Q132.68 12.48 130.88 14.56Q129.08 16.64 126.16 17.68L126.16 17.68Q127.88 20.60 129.38 23.16Q130.88 25.72 131.56 26.96Q132.24 28.20 132.80 29.18Q133.36 30.16 133.62 30.52Q133.88 30.88 134.12 31.12L134.12 31.12L137 31.52Q137.16 32.12 137 33L137 33L130.20 33L124.16 22.04Q122.96 19.76 121.88 18.52L121.88 18.52L121.32 18.52Q119.28 18.52 117.20 18.28L117.20 18.28L117.20 31.24L120.84 31.64Q121 32.24 120.84 33.12L120.84 33.12Q118.32 33 115.16 33L115.16 33Q112.80 33 109.44 33.08L109.44 33.08Q109.20 32.36 109.44 31.64L109.44 31.64L112.76 31.16Q112.92 29.64 112.92 26.48L112.92 26.48L112.92 2.92L109.68 2.52Q109.52 1.92 109.68 1.04ZM117.20 7.68L117.20 7.68L117.20 16.64Q118.44 16.80 120.80 16.80L120.80 16.80Q122.84 16.80 124.30 16.14Q125.76 15.48 126.48 14.38Q127.20 13.28 127.52 12.12Q127.84 10.96 127.84 9.68L127.84 9.68Q127.84 6.24 126.12 4.32Q124.40 2.40 120.40 2.40L120.40 2.40Q118.92 2.40 117.44 2.68L117.44 2.68Q117.20 4.96 117.20 7.68ZM144.84 21.28L141.28 31.24L144.52 31.64Q144.68 32.24 144.52 33.12L144.52 33.12Q142 33 140.28 33L140.28 33Q139.32 33 135.96 33.08L135.96 33.08Q135.72 32.36 135.96 31.64L135.96 31.64L138.60 31.16Q139.24 30.20 140.20 27.60L140.20 27.60L150.52 0L151.92 0L163.52 31.24L166.76 31.64Q166.92 32.24 166.76 33.12L166.76 33.12Q164.24 33 161.12 33L161.12 33Q158.80 33 155.44 33.08L155.44 33.08Q155.20 32.36 155.44 31.64L155.44 31.64L158.76 31.16L155.24 21.28L144.84 21.28ZM150.16 6.04L150.16 6.04L150.12 6.04Q149.64 7.92 148.56 10.96L148.56 10.96L145.56 19.28L154.52 19.28L151.60 10.96Q150.76 8.52 150.16 6.04ZM167.84 33.08L167.84 33.08Q167.60 32.36 167.84 31.64L167.84 31.64L171.16 31.16Q171.32 29.64 171.32 26.48L171.32 26.48L171.32 2.92L168.08 2.52Q167.92 1.92 168.08 1.04L168.08 1.04Q168.68 1.08 169.96 1.08L169.96 1.08Q172.52 1.08 176.58 0.86Q180.64 0.64 181.24 0.64L181.24 0.64Q189.08 0.64 193.12 4.88Q197.16 9.12 197.16 16.28L197.16 16.28Q197.16 23.56 193.36 28.36Q189.56 33.16 182.72 33.16L182.72 33.16Q180.44 33.16 176.68 33.10Q172.92 33.04 171.28 33.04L171.28 33.04Q168.96 33.04 167.84 33.08ZM181.20 31.24L181.20 31.24Q192.48 31.24 192.48 16.52L192.48 16.52Q192.48 10.16 189.54 6.48Q186.60 2.80 181.08 2.56L181.08 2.56Q180.60 2.52 179.60 2.52L179.60 2.52Q177.48 2.52 175.76 2.84L175.76 2.84Q175.60 4.36 175.60 7.68L175.60 7.68L175.60 31.12Q176.08 31.12 177.90 31.18Q179.72 31.24 181.20 31.24ZM217.48 0.36L217.48 0.36Q221.40 0.36 224.52 1.76Q227.64 3.16 229.56 5.50Q231.48 7.84 232.50 10.70Q233.52 13.56 233.52 16.68L233.52 16.68Q233.52 23.88 229 28.84Q224.48 33.80 217.48 33.80L217.48 33.80Q213.60 33.80 210.48 32.40Q207.36 31 205.44 28.66Q203.52 26.32 202.50 23.48Q201.48 20.64 201.48 17.56L201.48 17.56Q201.48 12.96 203.50 9.04Q205.52 5.12 209.22 2.74Q212.92 0.36 217.48 0.36ZM217.44 31.60L217.44 31.60Q221.20 31.60 223.82 29.42Q226.44 27.24 227.58 23.92Q228.72 20.60 228.72 16.52L228.72 16.52Q228.72 12.64 227.58 9.58Q226.44 6.52 223.84 4.54Q221.24 2.56 217.44 2.56L217.44 2.56Q211.96 2.56 209.12 6.56Q206.28 10.56 206.28 16.56L206.28 16.56Q206.28 20.68 207.40 23.98Q208.52 27.28 211.12 29.44Q213.72 31.60 217.44 31.60ZM237.32 1.04L237.32 1.04Q238.96 1.04 242.54 0.88Q246.12 0.72 249.04 0.72L249.04 0.72Q255.12 0.72 257.72 3.14Q260.32 5.56 260.32 9.88L260.32 9.88Q260.32 12.48 258.52 14.56Q256.72 16.64 253.80 17.68L253.80 17.68Q255.52 20.60 257.02 23.16Q258.52 25.72 259.20 26.96Q259.88 28.20 260.44 29.18Q261 30.16 261.26 30.52Q261.52 30.88 261.76 31.12L261.76 31.12L264.64 31.52Q264.80 32.12 264.64 33L264.64 33L257.84 33L251.80 22.04Q250.60 19.76 249.52 18.52L249.52 18.52L248.96 18.52Q246.92 18.52 244.84 18.28L244.84 18.28L244.84 31.24L248.48 31.64Q248.64 32.24 248.48 33.12L248.48 33.12Q245.96 33 242.80 33L242.80 33Q240.44 33 237.08 33.08L237.08 33.08Q236.84 32.36 237.08 31.64L237.08 31.64L240.40 31.16Q240.56 29.64 240.56 26.48L240.56 26.48L240.56 2.92L237.32 2.52Q237.16 1.92 237.32 1.04ZM244.84 7.68L244.84 7.68L244.84 16.64Q246.08 16.80 248.44 16.80L248.44 16.80Q250.48 16.80 251.94 16.14Q253.40 15.48 254.12 14.38Q254.84 13.28 255.16 12.12Q255.48 10.96 255.48 9.68L255.48 9.68Q255.48 6.24 253.76 4.32Q252.04 2.40 248.04 2.40L248.04 2.40Q246.56 2.40 245.08 2.68L245.08 2.68Q244.84 4.96 244.84 7.68Z" transform="translate(251.984 0) scale(1)"></path><path fill="#1c2149" fill-rule="nonzero" d="M0.24 32.44L0.24 32.44Q0 31.72 0.24 31L0.24 31L3.56 30.52Q3.72 29 3.72 25.84L3.72 25.84L3.72 2.28L0.48 1.88Q0.32 1.28 0.48 0.40L0.48 0.40Q1.08 0.44 2.36 0.44L2.36 0.44Q4.92 0.44 8.98 0.22Q13.04 0 13.64 0L13.64 0Q21.48 0 25.52 4.24Q29.56 8.48 29.56 15.64L29.56 15.64Q29.56 22.92 25.76 27.72Q21.96 32.52 15.12 32.52L15.12 32.52Q12.84 32.52 9.08 32.46Q5.32 32.40 3.68 32.40L3.68 32.40Q1.36 32.40 0.24 32.44ZM13.60 30.60L13.60 30.60Q24.88 30.60 24.88 15.88L24.88 15.88Q24.88 9.52 21.94 5.84Q19 2.16 13.48 1.92L13.48 1.92Q13 1.88 12 1.88L12 1.88Q9.88 1.88 8.16 2.20L8.16 2.20Q8 3.72 8 7.04L8 7.04L8 30.48Q8.48 30.48 10.30 30.54Q12.12 30.60 13.60 30.60ZM36.72 25.88L36.72 25.88L36.72 2.28L33.48 1.84Q33.24 1.12 33.48 0.40L33.48 0.40L38.96 0.52L55.12 0.52L55.16 9.80Q54.28 9.96 53.68 9.80L53.68 9.80L51.80 2.56L41 2.56L41 14.56L47.40 14.44L48.32 10.52Q48.92 10.36 49.80 10.52L49.80 10.52Q49.64 12.76 49.64 15.68L49.64 15.68Q49.64 18.36 49.76 20.88L49.76 20.88Q49.04 21.12 48.32 20.88L48.32 20.88L47.44 16.72L41 16.60L41 30.32L53 30.32L54.88 23.08Q55.48 22.92 56.36 23.08L56.36 23.08L56.32 32.36L38.96 32.36L33.24 32.48Q33 31.76 33.24 31.04L33.24 31.04L36.56 30.60Q36.72 28.56 36.72 25.88Z" transform="translate(251.984 41.8) scale(4.705)"></path><path fill="#1c2149" fill-rule="nonzero" d="M0 10.44L0.04 1.16L27.68 1.16L27.72 10.44Q26.84 10.60 26.24 10.44L26.24 10.44L24.36 3.20L16.04 3.20L16.04 31.24L20.08 31.64Q20.24 32.24 20.08 33.12L20.08 33.12Q17.56 33 14 33L14 33Q11.24 33 7.88 33.08L7.88 33.08Q7.64 32.36 7.88 31.64L7.88 31.64L11.60 31.16Q11.76 29.64 11.76 26.48L11.76 26.48L11.76 3.20L3.36 3.20L1.48 10.44Q0.88 10.60 0 10.44L0 10.44ZM30.88 1.04L30.88 1.04Q32.52 1.04 36.10 0.88Q39.68 0.72 42.60 0.72L42.60 0.72Q48.68 0.72 51.28 3.14Q53.88 5.56 53.88 9.88L53.88 9.88Q53.88 12.48 52.08 14.56Q50.28 16.64 47.36 17.68L47.36 17.68Q49.08 20.60 50.58 23.16Q52.08 25.72 52.76 26.96Q53.44 28.20 54 29.18Q54.56 30.16 54.82 30.52Q55.08 30.88 55.32 31.12L55.32 31.12L58.20 31.52Q58.36 32.12 58.20 33L58.20 33L51.40 33L45.36 22.04Q44.16 19.76 43.08 18.52L43.08 18.52L42.52 18.52Q40.48 18.52 38.40 18.28L38.40 18.28L38.40 31.24L42.04 31.64Q42.20 32.24 42.04 33.12L42.04 33.12Q39.52 33 36.36 33L36.36 33Q34 33 30.64 33.08L30.64 33.08Q30.40 32.36 30.64 31.64L30.64 31.64L33.96 31.16Q34.12 29.64 34.12 26.48L34.12 26.48L34.12 2.92L30.88 2.52Q30.72 1.92 30.88 1.04ZM38.40 7.68L38.40 7.68L38.40 16.64Q39.64 16.80 42 16.80L42 16.80Q44.04 16.80 45.50 16.14Q46.96 15.48 47.68 14.38Q48.40 13.28 48.72 12.12Q49.04 10.96 49.04 9.68L49.04 9.68Q49.04 6.24 47.32 4.32Q45.60 2.40 41.60 2.40L41.60 2.40Q40.12 2.40 38.64 2.68L38.64 2.68Q38.40 4.96 38.40 7.68ZM66.04 21.28L62.48 31.24L65.72 31.64Q65.88 32.24 65.72 33.12L65.72 33.12Q63.20 33 61.48 33L61.48 33Q60.52 33 57.16 33.08L57.16 33.08Q56.92 32.36 57.16 31.64L57.16 31.64L59.80 31.16Q60.44 30.20 61.40 27.60L61.40 27.60L71.72 0L73.12 0L84.72 31.24L87.96 31.64Q88.12 32.24 87.96 33.12L87.96 33.12Q85.44 33 82.32 33L82.32 33Q80 33 76.64 33.08L76.64 33.08Q76.40 32.36 76.64 31.64L76.64 31.64L79.96 31.16L76.44 21.28L66.04 21.28ZM71.36 6.04L71.36 6.04L71.32 6.04Q70.84 7.92 69.76 10.96L69.76 10.96L66.76 19.28L75.72 19.28L72.80 10.96Q71.96 8.52 71.36 6.04ZM114.16 27.08L114.16 27.08Q114.84 27.52 115.20 28.60L115.20 28.60Q109.64 33.80 103.92 33.80L103.92 33.80Q100 33.80 97.08 32.38Q94.16 30.96 92.24 28.62Q90.32 26.28 89.38 23.30Q88.44 20.32 88.44 17.20L88.44 17.20Q88.44 14.04 89.52 11.02Q90.60 8 92.68 5.62Q94.76 3.24 97.82 1.80Q100.88 0.36 104.80 0.36L104.80 0.36Q109.96 0.36 114.40 2.76L114.40 2.76L114.40 10.44Q113.68 10.56 113.12 10.56L113.12 10.56Q112.52 10.56 112.12 10.44L112.12 10.44L110.84 3.76Q108.40 2.16 104.32 2.16L104.32 2.16Q101.80 2.16 99.78 3.30Q97.76 4.44 96.34 6.38Q94.92 8.32 94.16 10.94Q93.40 13.56 93.40 16.52L93.40 16.52Q93.40 19.68 94.14 22.36Q94.88 25.04 96.24 27Q97.60 28.96 99.54 30.06Q101.48 31.16 103.88 31.16L103.88 31.16Q106.76 31.16 109.44 30.04Q112.12 28.92 114.16 27.08ZM117.80 10.44L117.84 1.16L145.48 1.16L145.52 10.44Q144.64 10.60 144.04 10.44L144.04 10.44L142.16 3.20L133.84 3.20L133.84 31.24L137.88 31.64Q138.04 32.24 137.88 33.12L137.88 33.12Q135.36 33 131.80 33L131.80 33Q129.04 33 125.68 33.08L125.68 33.08Q125.44 32.36 125.68 31.64L125.68 31.64L129.40 31.16Q129.56 29.64 129.56 26.48L129.56 26.48L129.56 3.20L121.16 3.20L119.28 10.44Q118.68 10.60 117.80 10.44L117.80 10.44ZM164.48 0.36L164.48 0.36Q168.40 0.36 171.52 1.76Q174.64 3.16 176.56 5.50Q178.48 7.84 179.50 10.70Q180.52 13.56 180.52 16.68L180.52 16.68Q180.52 23.88 176 28.84Q171.48 33.80 164.48 33.80L164.48 33.80Q160.60 33.80 157.48 32.40Q154.36 31 152.44 28.66Q150.52 26.32 149.50 23.48Q148.48 20.64 148.48 17.56L148.48 17.56Q148.48 12.96 150.50 9.04Q152.52 5.12 156.22 2.74Q159.92 0.36 164.48 0.36ZM164.44 31.60L164.44 31.60Q168.20 31.60 170.82 29.42Q173.44 27.24 174.58 23.92Q175.72 20.60 175.72 16.52L175.72 16.52Q175.72 12.64 174.58 9.58Q173.44 6.52 170.84 4.54Q168.24 2.56 164.44 2.56L164.44 2.56Q158.96 2.56 156.12 6.56Q153.28 10.56 153.28 16.56L153.28 16.56Q153.28 20.68 154.40 23.98Q155.52 27.28 158.12 29.44Q160.72 31.60 164.44 31.60ZM184.32 1.04L184.32 1.04Q185.96 1.04 189.54 0.88Q193.12 0.72 196.04 0.72L196.04 0.72Q202.12 0.72 204.72 3.14Q207.32 5.56 207.32 9.88L207.32 9.88Q207.32 12.48 205.52 14.56Q203.72 16.64 200.80 17.68L200.80 17.68Q202.52 20.60 204.02 23.16Q205.52 25.72 206.20 26.96Q206.88 28.20 207.44 29.18Q208 30.16 208.26 30.52Q208.52 30.88 208.76 31.12L208.76 31.12L211.64 31.52Q211.80 32.12 211.64 33L211.64 33L204.84 33L198.80 22.04Q197.60 19.76 196.52 18.52L196.52 18.52L195.96 18.52Q193.92 18.52 191.84 18.28L191.84 18.28L191.84 31.24L195.48 31.64Q195.64 32.24 195.48 33.12L195.48 33.12Q192.96 33 189.80 33L189.80 33Q187.44 33 184.08 33.08L184.08 33.08Q183.84 32.36 184.08 31.64L184.08 31.64L187.40 31.16Q187.56 29.64 187.56 26.48L187.56 26.48L187.56 2.92L184.32 2.52Q184.16 1.92 184.32 1.04ZM191.84 7.68L191.84 7.68L191.84 16.64Q193.08 16.80 195.44 16.80L195.44 16.80Q197.48 16.80 198.94 16.14Q200.40 15.48 201.12 14.38Q201.84 13.28 202.16 12.12Q202.48 10.96 202.48 9.68L202.48 9.68Q202.48 6.24 200.76 4.32Q199.04 2.40 195.04 2.40L195.04 2.40Q193.56 2.40 192.08 2.68L192.08 2.68Q191.84 4.96 191.84 7.68ZM216.36 26.52L216.36 26.52L216.36 2.92L213.12 2.48Q212.88 1.76 213.12 1.04L213.12 1.04L218.60 1.16L234.76 1.16L234.80 10.44Q233.92 10.60 233.32 10.44L233.32 10.44L231.44 3.20L220.64 3.20L220.64 15.20L227.04 15.08L227.96 11.16Q228.56 11 229.44 11.16L229.44 11.16Q229.28 13.40 229.28 16.32L229.28 16.32Q229.28 19 229.40 21.52L229.40 21.52Q228.68 21.76 227.96 21.52L227.96 21.52L227.08 17.36L220.64 17.24L220.64 30.96L232.64 30.96L234.52 23.72Q235.12 23.56 236.00 23.72L236.00 23.72L235.96 33L218.60 33L212.88 33.12Q212.64 32.40 212.88 31.68L212.88 31.68L216.20 31.24Q216.36 29.20 216.36 26.52ZM243.44 23.76L244.72 30.24Q247.04 31.84 251.24 31.84L251.24 31.84Q254.08 31.84 255.50 30.20Q256.92 28.56 256.92 26.28L256.92 26.28Q256.92 25.08 256.72 24.26Q256.52 23.44 255.86 22.40Q255.20 21.36 253.76 20.32Q252.32 19.28 250.00 18.12L250.00 18.12Q247.28 16.76 245.60 15.56Q243.92 14.36 243.08 13.08Q242.24 11.80 241.96 10.64Q241.68 9.48 241.68 7.76L241.68 7.76Q241.68 4.24 244.50 2.30Q247.32 0.36 251.16 0.36L251.16 0.36Q255.92 0.36 260.36 2.76L260.36 2.76L260.36 10.44Q259 10.68 258.08 10.44L258.08 10.44L256.80 3.52Q254.24 2.12 251.08 2.12L251.08 2.12Q248.96 2.12 247.50 3.38Q246.04 4.64 246.04 6.92L246.04 6.92Q246.04 8.20 246.20 8.92Q246.36 9.64 247.00 10.62Q247.64 11.60 249.12 12.58Q250.60 13.56 253.08 14.76L253.08 14.76Q261.64 18.92 261.64 24.68L261.64 24.68Q261.64 28.76 258.52 31.28Q255.40 33.80 250.36 33.80L250.36 33.80Q245.36 33.80 241.16 31.44L241.16 31.44L241.16 23.76Q242.52 23.52 243.44 23.76L243.44 23.76Z" transform="translate(251.984 202.802) scale(1.012)"></path></svg>